<svg width="12" height="13" viewBox="0 0 12 13" fill="none" xmlns="http://www.w3.org/2000/svg">
<path fill-rule="evenodd" clip-rule="evenodd" d="M0.75 6.49986C0.75 6.40041 0.789509 6.30502 0.859835 6.2347C0.930161 6.16437 1.02554 6.12486 1.125 6.12486H9.96975L7.6095 3.76536C7.53908 3.69495 7.49953 3.59945 7.49953 3.49986C7.49953 3.40028 7.53908 3.30478 7.6095 3.23436C7.67991 3.16395 7.77542 3.12439 7.875 3.12439C7.97458 3.12439 8.07009 3.16395 8.1405 3.23436L11.1405 6.23436C11.1754 6.2692 11.2031 6.31058 11.222 6.35614C11.2409 6.4017 11.2507 6.45054 11.2507 6.49986C11.2507 6.54919 11.2409 6.59803 11.222 6.64359C11.2031 6.68915 11.1754 6.73053 11.1405 6.76536L8.1405 9.76536C8.07009 9.83578 7.97458 9.87534 7.875 9.87534C7.77542 9.87534 7.67991 9.83578 7.6095 9.76536C7.53908 9.69495 7.49953 9.59944 7.49953 9.49986C7.49953 9.40028 7.53908 9.30478 7.6095 9.23436L9.96975 6.87486H1.125C1.02554 6.87486 0.930161 6.83535 0.859835 6.76503C0.789509 6.6947 0.75 6.59932 0.75 6.49986Z" fill="#6C757D"/>
</svg>
